<svg width="42" height="42" viewBox="0 0 42 42" fill="none" xmlns="http://www.w3.org/2000/svg">
<path d="M21.3124 1.72397C25.078 1.72397 28.1405 4.78126 28.1405 8.54688C28.1405 12.3177 25.078 15.375 21.3124 15.375C17.5416 15.375 14.4895 12.3177 14.4895 8.54688C14.4947 4.78126 17.5468 1.73438 21.3124 1.72397ZM21.3124 16.849C25.8905 16.8698 29.6145 13.1719 29.6249 8.59376C29.6458 4.01564 25.9478 0.296884 21.3697 0.27605C16.7916 0.260425 13.0676 3.95834 13.052 8.53647C13.052 8.54688 13.052 8.5573 13.052 8.56251C13.0572 13.1302 16.7447 16.8333 21.3124 16.849Z" fill="#125B50"/>
<path d="M35.2083 13.4323C37.2343 13.4323 38.8698 15.0677 38.8698 17.0885C38.8698 19.1042 37.2343 20.7448 35.2083 20.7448C33.1927 20.7448 31.552 19.1042 31.552 17.0885C31.552 15.0677 33.1927 13.4323 35.2083 13.4323ZM35.2083 22.2083C38.0364 22.2083 40.3281 19.9167 40.3281 17.0885C40.3281 14.2604 38.0364 11.9688 35.2083 11.9688C32.3854 11.9688 30.0885 14.2604 30.0885 17.0885C30.0885 19.9167 32.3854 22.2083 35.2083 22.2083Z" fill="#125B50"/>
<path d="M40.3281 38.2552H31.5521V27.0105C31.5521 26.5886 31.5208 26.1615 31.4583 25.7396C33.3802 23.6667 36.6198 23.5469 38.6979 25.474C39.7344 26.4375 40.3281 27.7917 40.3281 29.2084V38.2552ZM30.0885 39.7188H12.5313V27.0105C12.5313 22.5677 16.1354 18.9636 20.5833 18.9636H22.0469C26.4844 18.9636 30.0885 22.5677 30.0885 27.0105V39.7188ZM2.29167 38.2552V29.2084C2.29687 26.3802 4.60417 24.0938 7.43229 24.1042C8.84896 24.1094 10.2031 24.7032 11.1667 25.7396C11.1042 26.1615 11.0729 26.5886 11.0677 27.0105V38.2552H2.29167ZM35.2083 22.625C33.7083 22.625 32.2552 23.1407 31.0833 24.0834C29.8177 20.1667 26.1667 17.5052 22.0469 17.5052H20.5833C16.4583 17.5052 12.8073 20.1667 11.5365 24.0834C8.70313 21.8073 4.5625 22.2605 2.28125 25.0938C1.34375 26.2605 0.833333 27.7084 0.828125 29.2084V38.9896C0.828125 39.3907 1.15625 39.7188 1.55729 39.7188H11.0677V40.4532C11.0677 40.8542 11.3958 41.1823 11.8021 41.1823H30.8229C31.224 41.1823 31.5521 40.8542 31.5521 40.4532V39.7188H41.0625C41.4688 39.7188 41.7917 39.3907 41.7917 38.9896V29.2084C41.7917 25.573 38.849 22.625 35.2083 22.625Z" fill="#125B50"/>
<path d="M7.41142 13.4323C9.43225 13.4323 11.0677 15.0677 11.0677 17.0885C11.0677 19.1042 9.43225 20.7448 7.41142 20.7448C5.39579 20.7448 3.75517 19.1042 3.75517 17.0885C3.75517 15.0677 5.39579 13.4323 7.41142 13.4323ZM7.41142 22.2083C10.2395 22.2083 12.5312 19.9167 12.5312 17.0885C12.5312 14.2604 10.2395 11.9688 7.41142 11.9688C4.58329 11.9688 2.29163 14.2604 2.29163 17.0885C2.29163 19.9167 4.58329 22.2083 7.41142 22.2083Z" fill="#125B50"/>
</svg>
