<svg width="43" height="42" viewBox="0 0 43 42" fill="none" xmlns="http://www.w3.org/2000/svg">
<path d="M39.5156 25.9167C40.5364 20.4635 41.7187 15.0365 42.7552 9.58332C43.0625 7.93749 42.1302 5.83853 40.3229 5.57291C39.526 5.35416 38.5937 6.19791 38.9166 7.0052C39.0208 7.68749 39.8021 7.76041 40.3229 7.93749C40.4844 8.37499 40.776 8.82812 40.5885 9.3177C40.4739 9.90624 40.3541 10.4896 40.2396 11.0729H13.6302C13.1041 11.0729 12.6771 11.5 12.6771 12.0208C12.6771 12.5469 13.1041 12.9687 13.6302 12.9687H39.8594C39.1458 16.5156 38.4271 20.0677 37.7239 23.6198C37.5677 24.3594 37.4583 25.1198 37.1458 25.8177C36.5885 26.0312 35.9635 25.9219 35.3802 25.9531C28.4583 25.9323 21.5416 25.9479 14.625 25.9427C12.8698 18.4948 11.1354 11.0417 9.37498 3.59374C9.14581 2.18749 7.93748 0.890615 6.43748 0.942698C4.64061 0.953116 2.84373 0.869781 1.05206 0.994782C0.0624807 1.33332 0.0624794 2.78124 1.03123 3.15103C2.92185 3.32812 4.83331 3.09895 6.72394 3.26041C7.17706 3.47916 7.09373 4.10416 7.27081 4.51562C9.33331 13.3698 11.4219 22.2187 13.526 31.0729C13.7969 32.5156 15.1771 33.6667 16.6823 33.5208C24.0677 33.5104 31.4531 33.5521 38.8385 33.5052C40.25 33.5521 40.2552 31.2344 38.8489 31.2708C32.2239 31.224 25.5937 31.2552 18.9687 31.25C17.9739 31.2292 16.9635 31.3385 15.9791 31.1458C15.5416 30.224 15.4219 29.1927 15.1614 28.2187C22.2812 28.2187 29.401 28.224 36.5208 28.2187C37.9062 28.3385 39.3073 27.2917 39.5156 25.9167Z" fill="#125B50"/>
<path d="M17.4948 34.3594C16.1927 34.6146 15.1094 35.6927 14.8594 36.9896C14.4323 38.7761 15.7135 40.724 17.5365 41.0313C19.4219 41.4636 21.4479 40.0156 21.6042 38.0938C21.9635 35.8698 19.6927 33.8021 17.4948 34.3594ZM19.151 38.3125C18.7865 38.9115 17.8542 39.0261 17.3906 38.474C16.7604 37.9167 17.1094 36.8021 17.8958 36.6042C18.8333 36.25 19.8125 37.5261 19.151 38.3125Z" fill="#125B50"/>
<path d="M34.302 34.3542C31.8072 34.7344 30.6666 38.0937 32.3801 39.9167C33.9322 41.8646 37.4322 41.2604 38.1978 38.8802C39.203 36.5104 36.8124 33.7239 34.302 34.3542ZM35.6041 38.6302C34.4322 39.5364 33.0676 37.4687 34.3541 36.75C35.526 35.8437 36.901 37.9114 35.6041 38.6302Z" fill="#125B50"/>
</svg>
