<svg width="45" height="43" viewBox="0 0 45 43" fill="none" xmlns="http://www.w3.org/2000/svg">
<path d="M38.4427 42.276H28.6041C28.2291 42.276 27.9166 41.9688 27.9166 41.5885V27.6615H17.9166V41.5885C17.9166 41.9688 17.6093 42.276 17.2291 42.276H7.15102C6.77081 42.276 6.46352 41.9688 6.46352 41.5885V21.1354H1.54685C1.2656 21.1354 1.01039 20.9635 0.906224 20.6979C0.807265 20.4375 0.874974 20.1354 1.08331 19.9479L22.3281 0.515626C22.5937 0.276042 22.9948 0.276042 23.2604 0.515626L44.5052 19.9479C44.7135 20.1354 44.7812 20.4375 44.6823 20.6979C44.5781 20.9635 44.3229 21.1354 44.0416 21.1354H39.1302V41.5885C39.1302 41.9688 38.8177 42.276 38.4427 42.276ZM29.2916 40.9063H37.7552V20.4531C37.7552 20.0729 38.0625 19.7656 38.4427 19.7656H42.276L22.7969 1.95313L3.31768 19.7656H7.15102C7.52602 19.7656 7.83331 20.0729 7.83331 20.4531V40.9063H16.5416V26.974C16.5416 26.599 16.8489 26.2917 17.2291 26.2917H28.6041C28.9844 26.2917 29.2916 26.599 29.2916 26.974V40.9063Z" fill="#125B50"/>
</svg>
