<svg width="42" height="35" viewBox="0 0 42 35" fill="none" xmlns="http://www.w3.org/2000/svg">
<path d="M39.9688 9.94793H39.9583L12.9792 13.2865L1.68229 4.79689L26.849 1.60418L39.9688 9.91147V9.94793ZM39.9479 29.4479L13.3177 32.8073V14.6094L39.9688 11.3021L39.9479 29.4479ZM12.651 33.5521V33.5625V33.5521ZM11.9948 32.4896L1.66667 25.5521V6.50002L11.9948 14.2188V32.4896ZM41.2917 9.87502C41.2708 9.43231 41.0521 9.01564 40.6719 8.77085L27.5521 0.463558C27.2917 0.296891 26.9844 0.229182 26.6719 0.265641L1.51563 3.45835C0.968749 3.53127 0.526042 3.9271 0.385417 4.46877C0.34375 4.61981 0.338541 4.77606 0.348958 4.92189C0.343749 4.97918 0.34375 25.5521 0.34375 25.5521C0.34375 26.0104 0.572917 26.4427 0.953125 26.7083L11.8281 33.9896C12.0469 34.1458 12.3177 34.2292 12.5885 34.2292L40.1094 30.7865C40.7865 30.7031 41.3021 30.1146 41.3021 29.4167L41.2917 9.87502Z" fill="#125B50"/>
</svg>
