<svg width="43" height="43" viewBox="0 0 43 43" fill="none" xmlns="http://www.w3.org/2000/svg">
<path d="M21.7656 42.3021C10.1823 42.3021 0.760376 32.8802 0.760376 21.3021C0.760376 9.71872 10.1823 0.296844 21.7656 0.296844C33.3489 0.296844 42.7656 9.71872 42.7656 21.3021C42.7656 32.8802 33.3489 42.3021 21.7656 42.3021ZM21.7656 2.38018C11.3333 2.38018 2.84371 10.8698 2.84371 21.3021C2.84371 31.7343 11.3333 40.2239 21.7656 40.2239C32.1979 40.2239 40.6875 31.7343 40.6875 21.3021C40.6875 10.8698 32.1979 2.38018 21.7656 2.38018Z" fill="#125B50"/>
<path d="M32.5312 20.1927C25.2447 20.1927 17.9635 20.1927 10.677 20.1927C9.42179 20.1927 9.42179 22.1458 10.677 22.1458C17.9635 22.1458 25.2447 22.1458 32.5312 22.1458C33.7864 22.1458 33.7864 20.1927 32.5312 20.1927Z" fill="#125B50"/>
<path d="M32.5312 11.5521C25.2447 11.5521 17.9635 11.5521 10.677 11.5521C9.42179 11.5521 9.42179 13.5 10.677 13.5C17.9635 13.5 25.2447 13.5 32.5312 13.5C33.7864 13.5 33.7864 11.5521 32.5312 11.5521Z" fill="#125B50"/>
<path d="M32.5312 28.3437C25.2447 28.3437 17.9635 28.3437 10.677 28.3437C9.42179 28.3437 9.42179 30.2916 10.677 30.2916C17.9635 30.2916 25.2447 30.2916 32.5312 30.2916C33.7864 30.2916 33.7864 28.3437 32.5312 28.3437Z" fill="#125B50"/>
</svg>
