<svg width="42" height="30" viewBox="0 0 42 30" fill="none" xmlns="http://www.w3.org/2000/svg">
<path d="M2.84896 0.276001C2.57813 0.276001 2.3125 0.322877 2.0625 0.427043C1.80729 0.531211 1.58333 0.677042 1.39063 0.869751C1.19271 1.06246 1.04687 1.28642 0.9375 1.54163C0.833333 1.79683 0.78125 2.06246 0.78125 2.3385C0.78125 2.61454 0.833333 2.88017 0.9375 3.13538C1.04687 3.39059 1.19271 3.61454 1.39063 3.80725C1.58333 3.99996 1.80729 4.151 2.0625 4.24996C2.3125 4.35413 2.57813 4.40621 2.84896 4.401H39.5677C39.8385 4.40621 40.1042 4.35413 40.3542 4.24996C40.6094 4.151 40.8333 3.99996 41.026 3.80725C41.224 3.61454 41.3698 3.39059 41.4792 3.13538C41.5833 2.88017 41.6354 2.61454 41.6354 2.3385C41.6354 2.06246 41.5833 1.79683 41.4792 1.54163C41.3698 1.28642 41.224 1.06246 41.026 0.869751C40.8333 0.677042 40.6094 0.531211 40.3542 0.427043C40.1042 0.322877 39.8385 0.276001 39.5677 0.276001H2.84896ZM2.84896 12.6458C2.57813 12.6406 2.3125 12.6927 2.0625 12.7916C1.80729 12.8958 1.58333 13.0416 1.39063 13.2395C1.19271 13.4323 1.04687 13.6562 0.9375 13.9114C0.833333 14.1666 0.78125 14.4323 0.78125 14.7083C0.78125 14.9791 0.833333 15.2448 0.9375 15.5C1.04687 15.7552 1.19271 15.9791 1.39063 16.1718C1.58333 16.3698 1.80729 16.5156 2.0625 16.6198C2.3125 16.7187 2.57813 16.7708 2.84896 16.7656H39.5677C39.8385 16.7708 40.1042 16.7187 40.3542 16.6198C40.6094 16.5156 40.8333 16.3698 41.026 16.1718C41.224 15.9791 41.3698 15.7552 41.4792 15.5C41.5833 15.2448 41.6354 14.9791 41.6354 14.7083C41.6354 14.4323 41.5833 14.1666 41.4792 13.9114C41.3698 13.6562 41.224 13.4323 41.026 13.2395C40.8333 13.0416 40.6094 12.8958 40.3542 12.7916C40.1042 12.6927 39.8385 12.6406 39.5677 12.6458H2.84896ZM2.84896 25.0104C2.57813 25.0052 2.3125 25.0573 2.0625 25.1614C1.80729 25.2604 1.58333 25.4114 1.39063 25.6041C1.19271 25.7968 1.04687 26.0208 0.9375 26.276C0.833333 26.5312 0.78125 26.7968 0.78125 27.0729C0.78125 27.3489 0.833333 27.6145 0.9375 27.8698C1.04687 28.125 1.19271 28.3489 1.39063 28.5416C1.58333 28.7343 1.80729 28.8802 2.0625 28.9843C2.3125 29.0885 2.57813 29.1354 2.84896 29.1354H39.5677C39.8385 29.1354 40.1042 29.0885 40.3542 28.9843C40.6094 28.8802 40.8333 28.7343 41.026 28.5416C41.224 28.3489 41.3698 28.125 41.4792 27.8698C41.5833 27.6145 41.6354 27.3489 41.6354 27.0729C41.6354 26.7968 41.5833 26.5312 41.4792 26.276C41.3698 26.0208 41.224 25.7968 41.026 25.6041C40.8333 25.4114 40.6094 25.2604 40.3542 25.1614C40.1042 25.0573 39.8385 25.0052 39.5677 25.0104H2.84896Z" fill="#125B50"/>
</svg>
