<svg width="44" height="42" viewBox="0 0 44 42" fill="none" xmlns="http://www.w3.org/2000/svg">
<path d="M43.026 39.1198L33.6458 29.7708C35.8333 26.7708 37.1249 23.0833 37.1249 19.1041C37.1249 9.07811 28.9478 0.927063 18.8958 0.927063C8.84367 0.927063 0.661377 9.07811 0.661377 19.1041C0.661377 29.125 8.84367 37.276 18.8958 37.276C23.7708 37.276 28.203 35.3594 31.4791 32.2396L40.703 41.4323C41.0208 41.7552 41.4426 41.9114 41.8645 41.9114C42.2812 41.9114 42.703 41.7552 43.026 41.4323C43.6666 40.7969 43.6666 39.7604 43.026 39.1198ZM18.8958 34.0052C10.651 34.0052 3.94784 27.3177 3.94784 19.1041C3.94784 10.8854 10.651 4.1979 18.8958 4.1979C27.1353 4.1979 33.8437 10.8854 33.8437 19.1041C33.8437 27.3177 27.1353 34.0052 18.8958 34.0052Z" fill="white"/>
</svg>
