<svg width="65" height="65" viewBox="0 0 65 65" fill="none" xmlns="http://www.w3.org/2000/svg">
<path d="M32.776 0.229126C31.7291 0.229126 30.6823 0.281211 29.6406 0.385376C28.5989 0.489544 27.5625 0.640585 26.5364 0.843709C25.5052 1.05204 24.4895 1.30725 23.4895 1.60933C22.4843 1.91142 21.5 2.26558 20.5312 2.66663C19.5625 3.06767 18.6198 3.51559 17.6927 4.01038C16.7708 4.50517 15.8698 5.04163 15 5.62496C14.1302 6.20829 13.2864 6.82808 12.4791 7.49475C11.6666 8.16142 10.8906 8.86454 10.151 9.60413C9.41142 10.3437 8.70829 11.1198 8.04163 11.9323C7.37496 12.7395 6.75517 13.5833 6.17183 14.4531C5.5885 15.3229 5.05204 16.2239 4.55725 17.1458C4.06246 18.0729 3.61454 19.0156 3.2135 19.9843C2.81246 20.9531 2.45829 21.9375 2.15621 22.9427C1.84892 23.9427 1.59892 24.9583 1.39058 25.9895C1.18746 27.0156 1.03642 28.052 0.932251 29.0937C0.828084 30.1354 0.776001 31.1823 0.776001 32.2291C0.776001 33.2812 0.828084 34.3229 0.932251 35.3698C1.03642 36.4114 1.18746 37.4479 1.39058 38.4739C1.59892 39.5 1.84892 40.5156 2.15621 41.5208C2.45829 42.5208 2.81246 43.5104 3.2135 44.4791C3.61454 45.4479 4.06246 46.3906 4.55725 47.3177C5.05204 48.2395 5.5885 49.1406 6.17183 50.0104C6.75517 50.8802 7.37496 51.7239 8.04163 52.5312C8.70829 53.3437 9.41142 54.1198 10.151 54.8593C10.8906 55.5989 11.6666 56.302 12.4791 56.9687C13.2864 57.6302 14.1302 58.2552 15 58.8385C15.8698 59.4218 16.7708 59.9583 17.6927 60.4531C18.6198 60.9479 19.5625 61.3958 20.5312 61.7968C21.5 62.1979 22.4843 62.5468 23.4895 62.8541C24.4895 63.1562 25.5052 63.4114 26.5364 63.6145C27.5625 63.8229 28.5989 63.9739 29.6406 64.0781C30.6823 64.1823 31.7291 64.2291 32.776 64.2291C33.8281 64.2291 34.8698 64.1823 35.9166 64.0781C36.9583 63.9739 37.9948 63.8229 39.0208 63.6145C40.0468 63.4114 41.0625 63.1562 42.0677 62.8541C43.0677 62.5468 44.0573 62.1979 45.026 61.7968C45.9895 61.3958 46.9375 60.9479 47.8645 60.4531C48.7864 59.9583 49.6823 59.4218 50.5573 58.8385C51.427 58.2552 52.2656 57.6302 53.0781 56.9687C53.8906 56.302 54.6614 55.5989 55.4062 54.8593C56.1458 54.1198 56.8489 53.3437 57.5156 52.5312C58.177 51.7239 58.802 50.8802 59.3854 50.0104C59.9687 49.1406 60.5052 48.2395 61 47.3177C61.4948 46.3906 61.9427 45.4479 62.3437 44.4791C62.7448 43.5104 63.0937 42.5208 63.401 41.5208C63.7031 40.5156 63.9583 39.5 64.1614 38.4739C64.3645 37.4479 64.5208 36.4114 64.625 35.3698C64.7239 34.3229 64.776 33.2812 64.776 32.2291C64.776 31.1823 64.7239 30.1354 64.625 29.0937C64.5208 28.052 64.3645 27.0156 64.1614 25.9895C63.9583 24.9583 63.7031 23.9427 63.3958 22.9427C63.0937 21.9375 62.7395 20.9531 62.3385 19.9843C61.9375 19.0156 61.4895 18.0729 60.9948 17.1458C60.5 16.2239 59.9635 15.3229 59.3802 14.4531C58.802 13.5833 58.177 12.7395 57.5104 11.9323C56.8437 11.1198 56.1458 10.3437 55.401 9.60413C54.6614 8.86454 53.8854 8.16142 53.0729 7.49475C52.2656 6.82808 51.427 6.20829 50.552 5.62496C49.6823 5.04163 48.7864 4.50517 47.8593 4.01038C46.9375 3.51559 45.9895 3.06767 45.0208 2.66663C44.052 2.26558 43.0677 1.91142 42.0677 1.60933C41.0625 1.30725 40.0468 1.05204 39.0208 0.843709C37.9895 0.640585 36.9583 0.489544 35.9114 0.385376C34.8698 0.281211 33.8229 0.229126 32.776 0.229126ZM32.776 12.2291C33.1562 12.2291 33.5364 12.2552 33.9114 12.2968C34.2864 12.3385 34.6614 12.4062 35.026 12.4895C35.3958 12.5781 35.7604 12.6875 36.1145 12.8125C36.4739 12.9427 36.8229 13.0937 37.1614 13.2604C37.5 13.4323 37.8281 13.6198 38.1458 13.8281C38.4635 14.0312 38.7656 14.2552 39.0573 14.5C39.3489 14.7395 39.625 15 39.8854 15.276C40.151 15.5468 40.3958 15.8385 40.6198 16.1406C40.8489 16.4427 41.0573 16.7552 41.25 17.0833C41.4427 17.4114 41.6145 17.75 41.7656 18.0937C41.9218 18.4427 42.052 18.7968 42.1614 19.1562C42.276 19.5208 42.3645 19.8906 42.4323 20.2604C42.5052 20.6354 42.552 21.0104 42.5729 21.3854C42.5989 21.7656 42.6041 22.1406 42.5885 22.5208C42.5677 22.901 42.526 23.276 42.4635 23.651C42.4062 24.026 42.3229 24.3906 42.2135 24.7552C42.1093 25.1198 41.9843 25.4791 41.8385 25.8281C41.6927 26.177 41.526 26.5156 41.3437 26.8489C41.1562 27.177 40.9531 27.5 40.7291 27.802C40.5104 28.1093 40.2708 28.4062 40.0156 28.6823C39.7552 28.9635 39.4843 29.2239 39.1979 29.4739C38.9114 29.7239 38.6093 29.9531 38.2968 30.1666C37.9843 30.3802 37.6614 30.5729 37.3229 30.7448C36.9895 30.9218 36.6458 31.0781 36.2916 31.2135C35.9375 31.3489 35.5729 31.4635 35.2083 31.5573C34.8385 31.651 34.4687 31.7239 34.0937 31.7708C33.7187 31.8229 33.3437 31.8541 32.9635 31.8593C32.5833 31.8645 32.2031 31.8541 31.8281 31.8125C31.4531 31.776 31.0781 31.7187 30.7083 31.6406C30.3385 31.5573 29.9739 31.4583 29.6145 31.3333C29.2552 31.2135 28.9062 31.0729 28.5625 30.9062C28.2187 30.7448 27.8906 30.5625 27.5677 30.3593C19.3281 25.1406 22.8958 12.3333 32.776 12.2291ZM44.2864 52.2291H21.2656C20.7916 52.2291 20.3177 52.1823 19.8541 52.0885C19.3854 51.9948 18.9323 51.8593 18.4948 51.677C18.052 51.4895 17.6354 51.2656 17.2395 51.0052C16.8437 50.7395 16.4791 50.4375 16.1406 50.0989C15.8073 49.7656 15.5052 49.3958 15.2395 49C14.9739 48.6041 14.75 48.1875 14.5677 47.7448C14.3906 47.3073 14.25 46.8541 14.1562 46.3854C14.0625 45.9166 14.0156 45.4479 14.0156 44.9739C14.0156 38.8229 18.5468 33.5104 25.0468 31.1198C25.5833 31.5729 26.1562 31.9791 26.7604 32.3333C27.3698 32.6823 28 32.9791 28.6614 33.2239C29.3229 33.4635 29.9948 33.6458 30.6875 33.7708C31.3802 33.8906 32.0729 33.9531 32.776 33.9531C33.4791 33.9531 34.177 33.8906 34.8698 33.7708C35.5573 33.6458 36.2343 33.4635 36.8958 33.2239C37.552 32.9791 38.1875 32.6823 38.7916 32.3333C39.401 31.9791 39.9739 31.5729 40.5052 31.1198C47.0052 33.5104 51.5364 38.8229 51.5364 44.9739C51.5364 45.4479 51.4895 45.9166 51.3958 46.3854C51.3073 46.8541 51.1666 47.3073 50.9843 47.7448C50.802 48.1875 50.5781 48.6041 50.3125 49C50.052 49.3958 49.75 49.7656 49.4114 50.0989C49.0781 50.4375 48.7135 50.7395 48.3177 51.0052C47.9218 51.2656 47.5 51.4895 47.0625 51.677C46.625 51.8593 46.1666 51.9948 45.7031 52.0885C45.2343 52.1823 44.7656 52.2291 44.2864 52.2291Z" fill="white"/>
</svg>
